<svg width="512" height="512" viewBox="0 0 512 512" fill="none" xmlns="http://www.w3.org/2000/svg">
<g clip-path="url(#clip0)">
<path d="M324.04 496.027C316.49 496.027 309.045 493.699 302.667 489.114L242.878 446.198C241.32 445.151 238.738 445.131 236.883 446.389L177.371 489.094C166.709 496.601 153.374 498.031 141.603 493.102C129.87 488.177 121.613 477.725 119.543 465.141L107.47 392.466C107.131 390.463 105.553 388.881 103.526 388.541L30.8319 376.469C18.2672 374.399 7.81542 366.165 2.88638 354.413C-2.06219 342.618 -0.589723 329.283 6.83509 318.769L49.8138 258.875C50.8801 257.316 50.8801 254.735 49.6224 252.879L6.96397 193.43C-0.523325 183.002 -2.01922 169.711 2.88638 157.853C7.7959 145.991 18.2672 137.672 30.8944 135.606L103.568 123.529C105.572 123.189 107.15 121.611 107.494 119.584L119.566 46.8907C121.636 34.326 129.87 23.8976 141.622 18.9686C153.398 13.9966 166.748 15.4691 177.266 22.9134L237.16 65.896C238.867 67.1107 241.191 67.1342 242.898 65.8726L302.648 22.9798C313.076 15.512 326.387 14.02 338.225 18.9256C350.087 23.8312 358.383 34.3064 360.472 46.9337L364.526 71.3367C365.975 80.0582 360.09 88.2915 351.364 89.7445C342.619 91.1505 334.409 85.3075 332.956 76.5821L328.902 52.1361C328.543 49.8552 326.922 48.8748 325.981 48.4882C325.063 48.0859 323.188 47.6367 321.309 48.9803L261.544 91.8965C248.659 101.091 231.403 101.091 218.542 91.92L158.71 48.9803C156.808 47.6367 154.909 48.0859 153.995 48.4686C152.886 48.9373 151.5 49.9411 151.136 52.1166L139.04 124.853C136.459 140.359 124.324 152.498 108.814 155.08L36.1008 167.172C33.8159 167.535 32.8356 169.156 32.4528 170.097C32.0466 171.035 31.5975 172.89 32.941 174.768L75.0058 233.276C84.7546 247.525 84.7546 264.589 76.0526 277.282L32.941 337.349C31.5975 339.247 32.0466 341.145 32.4294 342.082C32.902 343.192 33.9018 344.578 36.0773 344.941L108.814 357.038C124.324 359.615 136.459 371.754 139.04 387.26L151.113 459.977C151.476 462.176 152.886 463.176 153.972 463.645C154.89 464.031 156.769 464.477 158.815 463.07L218.475 420.24C231.466 411.343 248.53 411.343 261.224 420.045L321.29 463.156C323.165 464.5 325 464.051 325.961 463.645C326.879 463.262 328.519 462.282 328.883 460.02L340.979 387.284C343.557 371.774 355.696 359.639 371.201 357.057L443.918 344.984C446.117 344.621 447.117 343.215 447.586 342.125C447.973 341.188 448.441 339.309 447.012 337.282L404.181 277.622C399.038 270.455 400.658 260.453 407.849 255.289C415.016 250.169 425.042 251.79 430.182 258.957L473.098 318.75C480.585 329.393 482.058 342.723 477.109 354.518C472.18 366.251 461.729 374.504 449.144 376.574L376.47 388.647C374.467 388.99 372.889 390.568 372.545 392.595L360.472 465.289C358.406 477.873 350.087 488.348 338.249 493.274C333.64 495.109 328.82 496.027 324.04 496.027V496.027Z" fill="white"/>
<path d="M261.348 314.715C257.255 314.715 253.158 313.16 250.045 310.024L154.058 214.037C147.809 207.788 147.809 197.656 154.058 191.403C160.307 185.154 170.439 185.154 176.688 191.403L261.372 276.087L484.682 52.7767C490.932 46.5275 501.063 46.5275 507.312 52.7767C513.561 59.0258 513.561 69.1573 507.312 75.4104L272.675 310.044C269.543 313.16 265.446 314.715 261.348 314.715V314.715Z" fill="white"/>
</g>
<defs>
<clipPath id="clip0">
<rect width="512" height="512" fill="white"/>
</clipPath>
</defs>
</svg>
