<svg width="500" height="500" viewBox="0 0 500 500" fill="none" xmlns="http://www.w3.org/2000/svg">
<rect width="500" height="500" rx="250" fill="#F9FBFC"/>
<path d="M142.4 293.4H86.8L77.6 320H48.2L98.4 180.2H131L181.2 320H151.6L142.4 293.4ZM134.8 271L114.6 212.6L94.4 271H134.8ZM227.964 225.2C231.564 220.133 236.497 215.933 242.764 212.6C249.164 209.133 256.431 207.4 264.564 207.4C274.031 207.4 282.564 209.733 290.164 214.4C297.897 219.067 303.964 225.733 308.364 234.4C312.897 242.933 315.164 252.867 315.164 264.2C315.164 275.533 312.897 285.6 308.364 294.4C303.964 303.067 297.897 309.8 290.164 314.6C282.564 319.4 274.031 321.8 264.564 321.8C256.431 321.8 249.231 320.133 242.964 316.8C236.831 313.467 231.831 309.267 227.964 304.2V372.8H199.964V209.2H227.964V225.2ZM286.564 264.2C286.564 257.533 285.164 251.8 282.364 247C279.697 242.067 276.097 238.333 271.564 235.8C267.164 233.267 262.364 232 257.164 232C252.097 232 247.297 233.333 242.764 236C238.364 238.533 234.764 242.267 231.964 247.2C229.297 252.133 227.964 257.933 227.964 264.6C227.964 271.267 229.297 277.067 231.964 282C234.764 286.933 238.364 290.733 242.764 293.4C247.297 295.933 252.097 297.2 257.164 297.2C262.364 297.2 267.164 295.867 271.564 293.2C276.097 290.533 279.697 286.733 282.364 281.8C285.164 276.867 286.564 271 286.564 264.2ZM363.511 225.2C367.111 220.133 372.044 215.933 378.311 212.6C384.711 209.133 391.978 207.4 400.111 207.4C409.578 207.4 418.111 209.733 425.711 214.4C433.444 219.067 439.511 225.733 443.911 234.4C448.444 242.933 450.711 252.867 450.711 264.2C450.711 275.533 448.444 285.6 443.911 294.4C439.511 303.067 433.444 309.8 425.711 314.6C418.111 319.4 409.578 321.8 400.111 321.8C391.978 321.8 384.778 320.133 378.511 316.8C372.378 313.467 367.378 309.267 363.511 304.2V372.8H335.511V209.2H363.511V225.2ZM422.111 264.2C422.111 257.533 420.711 251.8 417.911 247C415.244 242.067 411.644 238.333 407.111 235.8C402.711 233.267 397.911 232 392.711 232C387.644 232 382.844 233.333 378.311 236C373.911 238.533 370.311 242.267 367.511 247.2C364.844 252.133 363.511 257.933 363.511 264.6C363.511 271.267 364.844 277.067 367.511 282C370.311 286.933 373.911 290.733 378.311 293.4C382.844 295.933 387.644 297.2 392.711 297.2C397.911 297.2 402.711 295.867 407.111 293.2C411.644 290.533 415.244 286.733 417.911 281.8C420.711 276.867 422.111 271 422.111 264.2Z" fill="#FCAE61"/>
</svg>
