<svg width="512" height="512" fill="none" xmlns="http://www.w3.org/2000/svg"><g clip-path="url(#clip0)" fill="#fff"><path d="M324.04 496.027c-7.55 0-14.995-2.328-21.373-6.913l-59.789-42.916c-1.558-1.047-4.14-1.067-5.995.191l-59.512 42.705c-10.662 7.507-23.997 8.937-35.768 4.008-11.733-4.925-19.99-15.377-22.06-27.961l-12.073-72.675a4.8 4.8 0 00-3.944-3.925l-72.694-12.072c-12.565-2.07-23.017-10.304-27.946-22.056-4.948-11.795-3.476-25.13 3.95-35.644l42.978-59.894c1.066-1.559 1.066-4.14-.192-5.996L6.964 193.43c-7.487-10.428-8.983-23.719-4.078-35.577 4.91-11.862 15.381-20.181 28.008-22.247l72.674-12.077a4.807 4.807 0 003.926-3.945l12.072-72.693c2.07-12.565 10.304-22.993 22.056-27.922 11.776-4.972 25.126-3.5 35.644 3.944l59.894 42.983c1.707 1.215 4.031 1.238 5.738-.023l59.75-42.893c10.428-7.468 23.739-8.96 35.577-4.054 11.862 4.905 20.158 15.38 22.247 28.008l4.054 24.403c1.449 8.721-4.436 16.954-13.162 18.407-8.745 1.406-16.955-4.436-18.408-13.162l-4.054-24.446c-.359-2.28-1.98-3.261-2.921-3.648-.918-.402-2.793-.851-4.672.492l-59.765 42.917c-12.885 9.194-30.141 9.194-43.002.023L158.71 48.98c-1.902-1.343-3.801-.894-4.715-.511-1.109.468-2.495 1.472-2.859 3.648l-12.096 72.736a36.746 36.746 0 01-30.226 30.227l-72.713 12.092c-2.285.363-3.265 1.984-3.648 2.925-.406.938-.856 2.793.488 4.671l42.065 58.508c9.749 14.249 9.749 31.313 1.047 44.006L32.94 337.349c-1.344 1.898-.894 3.796-.512 4.733.473 1.11 1.473 2.496 3.648 2.859l72.737 12.097a36.735 36.735 0 0130.226 30.222l12.073 72.717c.363 2.199 1.773 3.199 2.859 3.668.918.386 2.797.832 4.843-.575l59.66-42.83c12.991-8.897 30.055-8.897 42.749-.195l60.066 43.111c1.875 1.344 3.71.895 4.671.489.918-.383 2.558-1.363 2.922-3.625l12.096-72.736a36.74 36.74 0 0130.222-30.227l72.717-12.073c2.199-.363 3.199-1.769 3.668-2.859.387-.937.855-2.816-.574-4.843l-42.831-59.66c-5.143-7.167-3.523-17.169 3.668-22.333 7.167-5.12 17.193-3.499 22.333 3.668l42.916 59.793c7.487 10.643 8.96 23.973 4.011 35.768-4.929 11.733-15.38 19.986-27.965 22.056l-72.674 12.073a4.814 4.814 0 00-3.925 3.948l-12.073 72.694c-2.066 12.584-10.385 23.059-22.223 27.985-4.609 1.835-9.429 2.753-14.209 2.753z"/><path d="M261.348 314.715c-4.093 0-8.19-1.555-11.303-4.691l-95.987-95.987c-6.249-6.249-6.249-16.381 0-22.634 6.249-6.249 16.381-6.249 22.63 0l84.684 84.684 223.31-223.31c6.25-6.25 16.381-6.25 22.63 0 6.249 6.249 6.249 16.38 0 22.633L272.675 310.044a16.006 16.006 0 01-11.327 4.671z"/></g><defs><clipPath id="clip0"><path fill="#fff" d="M0 0h512v512H0z"/></clipPath></defs></svg>