<svg width="500" height="500" fill="none" xmlns="http://www.w3.org/2000/svg"><rect width="500" height="500" rx="250" fill="#F9FBFC"/><path d="M142.4 293.4H86.8L77.6 320H48.2l50.2-139.8H131L181.2 320h-29.6l-9.2-26.6zm-7.6-22.4l-20.2-58.4L94.4 271h40.4zm93.164-45.8c3.6-5.067 8.533-9.267 14.8-12.6 6.4-3.467 13.667-5.2 21.8-5.2 9.467 0 18 2.333 25.6 7 7.733 4.667 13.8 11.333 18.2 20 4.533 8.533 6.8 18.467 6.8 29.8 0 11.333-2.267 21.4-6.8 30.2-4.4 8.667-10.467 15.4-18.2 20.2-7.6 4.8-16.133 7.2-25.6 7.2-8.133 0-15.333-1.667-21.6-5-6.133-3.333-11.133-7.533-15-12.6v68.6h-28V209.2h28v16zm58.6 39c0-6.667-1.4-12.4-4.2-17.2-2.667-4.933-6.267-8.667-10.8-11.2-4.4-2.533-9.2-3.8-14.4-3.8-5.067 0-9.867 1.333-14.4 4-4.4 2.533-8 6.267-10.8 11.2-2.667 4.933-4 10.733-4 17.4 0 6.667 1.333 12.467 4 17.4 2.8 4.933 6.4 8.733 10.8 11.4 4.533 2.533 9.333 3.8 14.4 3.8 5.2 0 10-1.333 14.4-4 4.533-2.667 8.133-6.467 10.8-11.4 2.8-4.933 4.2-10.8 4.2-17.6zm76.947-39c3.6-5.067 8.533-9.267 14.8-12.6 6.4-3.467 13.667-5.2 21.8-5.2 9.467 0 18 2.333 25.6 7 7.733 4.667 13.8 11.333 18.2 20 4.533 8.533 6.8 18.467 6.8 29.8 0 11.333-2.267 21.4-6.8 30.2-4.4 8.667-10.467 15.4-18.2 20.2-7.6 4.8-16.133 7.2-25.6 7.2-8.133 0-15.333-1.667-21.6-5-6.133-3.333-11.133-7.533-15-12.6v68.6h-28V209.2h28v16zm58.6 39c0-6.667-1.4-12.4-4.2-17.2-2.667-4.933-6.267-8.667-10.8-11.2-4.4-2.533-9.2-3.8-14.4-3.8-5.067 0-9.867 1.333-14.4 4-4.4 2.533-8 6.267-10.8 11.2-2.667 4.933-4 10.733-4 17.4 0 6.667 1.333 12.467 4 17.4 2.8 4.933 6.4 8.733 10.8 11.4 4.533 2.533 9.333 3.8 14.4 3.8 5.2 0 10-1.333 14.4-4 4.533-2.667 8.133-6.467 10.8-11.4 2.8-4.933 4.2-10.8 4.2-17.6z" fill="#FCAE61"/></svg>